<?xml version="1.0" encoding="utf-8"?>
<!-- Generator: Adobe Illustrator 25.4.2, SVG Export Plug-In . SVG Version: 6.00 Build 0)  -->
<svg version="1.1" id="Layer_1" xmlns="http://www.w3.org/2000/svg" xmlns:xlink="http://www.w3.org/1999/xlink" x="0px" y="0px"
	 viewBox="0 0 800 800" style="enable-background:new 0 0 800 800;" xml:space="preserve">
<g>
	<g>
		<path d="M170.772,524.766h-59.611c-9.009,0-16.313-7.303-16.313-16.313V291.019c0-9.009,7.303-16.313,16.313-16.313h61.205
			c69.352,0,125.698,56.759,125.024,126.264C296.723,469.801,239.607,524.766,170.772,524.766z M161.108,474.818h10
			c41.113,0,75.548-32.526,76.328-73.631c0.798-42.062-33.186-76.534-75.069-76.534h-11.259c-9.009,0-16.313,7.303-16.313,16.313
			v117.54C144.795,467.515,152.099,474.818,161.108,474.818z"/>
	</g>
	<path d="M705.151,324.497v-49.634H651.75c-6.782,0-12.857,4.196-15.257,10.54l-82.23,217.318
		c-4.038,10.672,3.847,22.086,15.257,22.086h18.186c6.782,0,12.857-4.196,15.257-10.54l22.533-59.552
		c2.4-6.343,8.475-10.54,15.257-10.54h64.398v-46.089h-34.614c-11.41,0-19.295-11.414-15.257-22.086l15.5-40.963
		c2.4-6.343,8.475-10.54,15.257-10.54H705.151z"/>
	<g>
		<path d="M440.002,528c-70.924,0-128.625-57.421-128.625-128c0-70.579,57.701-128,128.625-128s128.625,57.421,128.625,128
			C568.628,470.579,510.927,528,440.002,528z M440.002,321.634c-43.556,0-78.992,35.155-78.992,78.366s35.436,78.365,78.992,78.365
			c43.555,0,78.99-35.154,78.99-78.365S483.558,321.634,440.002,321.634z"/>
	</g>
</g>
</svg>
